<?xml version="1.0" encoding="UTF-8" standalone="no"?>
<svg width="300" height="300" viewBox="0 0 300 300" fill="none" xmlns="http://www.w3.org/2000/svg">
  <!-- Navy blue wings at top -->
  <path d="M90 80 L150 110 L210 80 L250 100 L210 130 L150 110 L90 130 L50 100 Z" fill="#13294B" />
  
  <!-- Red star -->
  <path d="M150 50 L165 95 L210 95 L175 125 L190 170 L150 145 L110 170 L125 125 L90 95 L135 95 Z" fill="#C8102E" />
  
  <!-- Red stripes -->
  <rect x="95" y="150" width="25" height="120" fill="#C8102E" />
  <rect x="125" y="150" width="25" height="120" fill="#C8102E" />
  <rect x="155" y="150" width="25" height="120" fill="#C8102E" />
  <rect x="185" y="150" width="25" height="120" fill="#C8102E" />
  
  <!-- Blue shield bottom -->
  <path d="M80 270 L150 230 L220 270 L150 300 Z" fill="#13294B" />
  
  <!-- Shield outline -->
  <path d="M80 150 L220 150 L220 270 L150 300 L80 270 Z" fill="none" stroke="#13294B" strokeWidth="2" />
</svg>