<svg width="40" height="50" viewBox="0 0 40 50" fill="none" xmlns="http://www.w3.org/2000/svg">
<path d="M8.81633 13.551V40L3.42857 38.5306V13.551H8.81633Z" fill="#BF1E2D"/>
<path d="M13.2245 13.551V41.1429L17.7959 42.6122V13.551H13.2245Z" fill="#BF1E2D"/>
<path d="M20.0816 44.7347V49.7959L3.42857 44.2449V39.6735L20.0816 44.7347Z" fill="#013763"/>
<path d="M2.44898 9.14286L3.42857 12.4082H13.3878C11.5918 11.5918 10.8154 10.5871 10.6122 9.14286H2.44898Z" fill="#013763"/>
<path d="M1.30612 4.57143H10.6122V7.67347H2.12245L1.30612 4.57143Z" fill="#013763"/>
<path d="M0 0H13.2245C11.5638 1.05271 10.6626 1.79765 10.6122 3.59184H0.979592L0 0Z" fill="#013763"/>
<path d="M31.1837 13.551V40L36.5714 38.5306V13.551H31.1837Z" fill="#BF1E2D"/>
<path d="M26.7755 13.551V41.1429L22.2041 42.6122V13.551H26.7755Z" fill="#BF1E2D"/>
<path d="M19.9184 44.7347V49.7959L36.5714 44.2449V39.6735L19.9184 44.7347Z" fill="#013763"/>
<path d="M37.551 9.14286L36.5714 12.4082H26.6122C28.4082 11.5918 29.1846 10.5871 29.3878 9.14286H37.551Z" fill="#013763"/>
<path d="M38.6939 4.57143H29.3878V7.67347H37.8776L38.6939 4.57143Z" fill="#013763"/>
<path d="M40 0H26.7755C28.4362 1.05271 29.3374 1.79765 29.3878 3.59184H39.0204L40 0Z" fill="#013763"/>
<path d="M20.2446 1.95923L21.3443 5.11801H24.9029L22.0239 7.07024L23.1236 10.229L20.2446 8.27679L17.3657 10.229L18.4654 7.07024L15.5864 5.11801H19.145L20.2446 1.95923Z" fill="#BF1F2B"/>
</svg>